<svg xmlns="http://www.w3.org/2000/svg" viewBox="0 0 86.25 89.2"><defs><style>.cls-1{fill:#fff;}</style></defs><g id="Layer_2" data-name="Layer 2"><g id="Layer_1-2" data-name="Layer 1"><path d="M23.91,25a4,4,0,0,1,2.9,1.16A3.88,3.88,0,0,1,28,29a4,4,0,0,1-1.11,2.82A3.69,3.69,0,0,1,24,33H18v50.7a4,4,0,0,1-1.16,2.83,3.87,3.87,0,0,1-2.88,1.21,3.73,3.73,0,0,1-2.78-1.21A4,4,0,0,1,10,83.73V33H3.94a3.66,3.66,0,0,1-2.83-1.22A4,4,0,0,1,0,29a3.91,3.91,0,0,1,1.16-2.88A3.94,3.94,0,0,1,4,25H7.17a20.16,20.16,0,0,1-2-8.52,18.43,18.43,0,0,1,1-6.14A16.19,16.19,0,0,1,9.19,5,14.48,14.48,0,0,1,14,1.37,14.63,14.63,0,0,1,20.4,0a19.1,19.1,0,0,1,5.81.91c1.92.61,3.84,1.26,5.76,2S35.8,4.23,37.72,4.8a20.34,20.34,0,0,0,5.81.86,13.44,13.44,0,0,0,1.77-.1l1.77-.31q3.63,0,4.14,4a3.76,3.76,0,0,1-.71,2.35A4.44,4.44,0,0,1,48.73,13a8.17,8.17,0,0,1-2.42.61,22.26,22.26,0,0,1-2.68.16,29.58,29.58,0,0,1-8.28-1.17,57.41,57.41,0,0,1-7.07-2.47.55.55,0,0,1-.4-.1l-2.23-.81q-1.51-.51-2.52-.81a9.9,9.9,0,0,0-2.73-.3A6.19,6.19,0,0,0,15,10.71a10.06,10.06,0,0,0-1.82,5.85,11.41,11.41,0,0,0,3.36,7.88L17,25Z"/><path d="M51.31,55.25a4.59,4.59,0,0,0-2.17-3.79A32.9,32.9,0,0,0,41.51,48a14.5,14.5,0,0,1-4.65-2.38A11.34,11.34,0,0,1,34,42.37a12.73,12.73,0,0,1-1.72-7.12l.1-2.22H23.94a4,4,0,0,1-2.83-1.16,3.71,3.71,0,0,1-1.21-2.78,4,4,0,0,1,1.21-2.93,5.17,5.17,0,0,1,1.61-1c1.28-.51,6.32-.72,13.18-.3L82.22,25a4,4,0,0,1,2.87,1.11,3.72,3.72,0,0,1,1.16,2.83,4.1,4.1,0,0,1-1.16,2.87A3.72,3.72,0,0,1,82.21,33h-6v50.7a3.89,3.89,0,0,1-1.19,2.83,3.94,3.94,0,0,1-2.89,1.21,3.69,3.69,0,0,1-2.75-1.21,4,4,0,0,1-1.14-2.83v-13a10.38,10.38,0,0,0-1-2.47A13,13,0,0,0,65.6,65.9a7.85,7.85,0,0,0-2.22-1.71,5.53,5.53,0,0,0-2.58-.66C59.05,63.53,51.31,56.46,51.31,55.25Zm17,2.52V33H40.5a8.45,8.45,0,0,0-.15,1.06,9.74,9.74,0,0,0-.05,1.06A5,5,0,0,0,44,40.4a33,33,0,0,1,11.05,5.5,11.24,11.24,0,0,1,4.2,9.25v.5l1.61-.1a10.21,10.21,0,0,1,3.84.51A15.56,15.56,0,0,1,68.28,57.77Z"/><path class="cls-1" d="M63.65,62.69q0,9.72-9.27,16.66A42.2,42.2,0,0,1,34.6,87.16a6.85,6.85,0,0,1-.71,0q-1.24,0-5.52-6.72t-4.28-8.21c0-.35.27-.58.81-.67a63.91,63.91,0,0,0,10.4-2.68q5.64-2.49,5.64-7.38,0-3.1-3.69-6.94-6.39-6.51-6.93-7.23a17.93,17.93,0,0,1-3.74-11q0-8.76,9.16-14.55a44.35,44.35,0,0,1,18.37-6.22c.39,0,.7-.05.92-.05.54,0,1,.38,1.3,1.15a132.39,132.39,0,0,0,6.56,12.64,1,1,0,0,1,.16.47c0,.55-.33.82-1,.82a11.73,11.73,0,0,1-1.46-.15A13.39,13.39,0,0,0,59,30.33a14.2,14.2,0,0,0-6.83,1.58Q48.69,33.72,48.69,37q0,2.93,3.9,7.19,6.88,7.65,7.21,8A17.75,17.75,0,0,1,63.65,62.69Z"/><path d="M33.89,89.2c-1.55,0-3.09-1.18-7.21-7.65-4.24-6.66-4.59-8.28-4.59-9.28a2.7,2.7,0,0,1,2.46-2.64c6.28-1.26,8.89-2.09,10-2.55,4-1.75,4.43-4,4.43-5.54S37.86,58.11,35.81,56c-6.47-6.59-6.89-7.15-7.09-7.41a20,20,0,0,1-4.14-12.22c0-6.54,3.39-12,10.09-16.24A46.61,46.61,0,0,1,53.85,13.6H54c.47,0,.83-.05,1.08-.05a3.36,3.36,0,0,1,3.14,2.37,134.75,134.75,0,0,0,6.46,12.43,3,3,0,0,1,.42,1.46,2.77,2.77,0,0,1-3,2.82,12.67,12.67,0,0,1-1.74-.17A11.54,11.54,0,0,0,59,32.33a12.27,12.27,0,0,0-5.88,1.34C51,34.8,50.69,36,50.69,37s.44,2.63,3.38,5.84c6.1,6.79,7.09,7.9,7.25,8.09l.09.12a19.75,19.75,0,0,1,4.24,11.66C65.65,69.8,62.26,76,55.58,81a44.36,44.36,0,0,1-20.7,8.18A9,9,0,0,1,33.89,89.2ZM26.51,73.31a61.37,61.37,0,0,0,3.54,6.09c2.61,4.09,3.78,5.38,4.23,5.78h.11a40.4,40.4,0,0,0,18.78-7.41c5.71-4.28,8.48-9.2,8.48-15.07a15.85,15.85,0,0,0-3.42-9.24c-.57-.65-5.31-5.92-7.13-8-3-3.24-4.41-6-4.41-8.52,0-2,.8-4.88,4.6-6.85A16.21,16.21,0,0,1,59,28.33c.28,0,.63,0,1,.06a115.91,115.91,0,0,1-5.54-10.83l-.21,0a42.54,42.54,0,0,0-17.5,5.91c-5.55,3.51-8.24,7.72-8.24,12.87a15.8,15.8,0,0,0,3.34,9.81c.16.21,1.15,1.32,6.76,7,2.87,3,4.26,5.71,4.26,8.34,0,2.83-1.19,6.71-6.83,9.21A57,57,0,0,1,26.51,73.31Z"/></g></g></svg>